<svg id="icons" enable-background="new 0 0 64 64" height="512" viewBox="0 0 64 64" width="512" xmlns="http://www.w3.org/2000/svg"><path d="m32.005 53.006v-5-5-5-5-1.01-3.99-.01c0-1.101-.899-2-2-2h-11v-23.99h31.99v7.01h7v50.98h-25.99v-2z" fill="#e6e9ed"/><path d="m19.005 36.995c1.101 0 2 .89 2 2 0 1.1-.899 2-2 2-1.109 0-2-.9-2-2 0-1.11.891-2 2-2z" fill="#aab2bd"/><path d="m50.995 2.006 7 7.01h-7z" fill="#f5f7fa"/><path d="m36.985 8.685v1c2.37 1.13 4 3.54 4 6.33h-14c0-2.79 1.64-5.21 4-6.33v-1c.91-.43 1.93-.67 3-.67s2.09.24 3 .67z" fill="#f6bb42"/><path d="m36.985 9.685v-1c-.91-.43-1.93-.67-3-.67-.34 0-.673.032-1.001.079.704.101 1.378.298 1.999.591v1c2.37 1.13 4 3.54 4 6.33h2.002c0-2.79-1.63-5.201-4-6.33z" fill="#edab37"/><path d="m40.985 17.016c.55 0 1 .45 1 1v1c0 .55-.45 1-1 1h-14c-.55 0-1-.45-1-1v-1c0-.55.45-1 1-1z" fill="#ffce54"/><path d="m40.985 17.016h-2.002c.55 0 1 .45 1 1v1c0 .55-.45 1-1 1h2.002c.55 0 1-.45 1-1v-1c0-.55-.45-1-1-1z" fill="#f6bb42"/><path d="m19.005 43.995c1.101 0 2 .89 2 2 0 1.1-.899 2-2 2-1.109 0-2-.9-2-2 0-1.11.891-2 2-2z" fill="#aab2bd"/><path d="m19.005 50.995c1.101 0 2 .89 2 2 0 1.1-.899 2-2 2-1.109 0-2-.9-2-2 0-1.11.891-2 2-2z" fill="#aab2bd"/><path d="m26.005 36.995c1.101 0 2 .89 2 2 0 1.1-.899 2-2 2-1.109 0-2-.9-2-2 0-1.11.891-2 2-2z" fill="#aab2bd"/><path d="m26.005 43.995c1.101 0 2 .89 2 2 0 1.1-.899 2-2 2-1.109 0-2-.9-2-2 0-1.11.891-2 2-2z" fill="#aab2bd"/><path d="m26.005 50.995c1.101 0 2 .89 2 2 0 1.1-.899 2-2 2-1.109 0-2-.9-2-2 0-1.11.891-2 2-2z" fill="#aab2bd"/><path d="m30.986 12.015h5.998v-3.33c-.91-.43-1.929-.67-2.999-.67s-2.089.24-2.999.67z" fill="#ffce54"/><g fill="#ccd1d9"><path d="m50.998 29.007h-3c-.553 0-1-.447-1-1s.447-1 1-1h3c.553 0 1 .447 1 1s-.447 1-1 1z"/><path d="m40.985 29.007h-9.992c-.553 0-1-.447-1-1s.447-1 1-1h9.992c.553 0 1 .447 1 1s-.447 1-1 1z"/><path d="m50.998 34.007h-4.001c-.553 0-1-.447-1-1s.447-1 1-1h4.001c.553 0 1 .447 1 1s-.447 1-1 1z"/><path d="m40.985 34.007h-9.992c-.553 0-1-.447-1-1s.447-1 1-1h9.992c.553 0 1 .447 1 1s-.447 1-1 1z"/><path d="m50.998 39.007h-3c-.553 0-1-.447-1-1s.447-1 1-1h3c.553 0 1 .447 1 1s-.447 1-1 1z"/><path d="m40.985 39.007h-9.992c-.553 0-1-.447-1-1s.447-1 1-1h9.992c.553 0 1 .447 1 1s-.447 1-1 1z"/><path d="m50.998 44.007h-1.999c-.553 0-1-.447-1-1s.447-1 1-1h1.999c.553 0 1 .447 1 1s-.447 1-1 1z"/><path d="m40.985 44.007h-9.992c-.553 0-1-.447-1-1s.447-1 1-1h9.992c.553 0 1 .447 1 1s-.447 1-1 1z"/><path d="m50.998 49.007h-3c-.553 0-1-.447-1-1s.447-1 1-1h3c.553 0 1 .447 1 1s-.447 1-1 1z"/><path d="m40.985 49.007h-9.992c-.553 0-1-.447-1-1s.447-1 1-1h9.992c.553 0 1 .447 1 1s-.447 1-1 1z"/><path d="m50.998 54.007h-4.001c-.553 0-1-.447-1-1s.447-1 1-1h4.001c.553 0 1 .447 1 1s-.447 1-1 1z"/><path d="m40.985 54.007h-9.992c-.553 0-1-.447-1-1s.447-1 1-1h9.992c.553 0 1 .447 1 1s-.447 1-1 1z"/></g><path d="m12.005 36.995c1.101 0 2 .89 2 2 0 1.1-.899 2-2 2-1.109 0-2-.9-2-2 0-1.11.891-2 2-2z" fill="#aab2bd"/><path d="m12.005 43.995c1.101 0 2 .89 2 2 0 1.1-.899 2-2 2-1.109 0-2-.9-2-2 0-1.11.891-2 2-2z" fill="#aab2bd"/><path d="m8.005 57.994h22c1.101 0 2-.9 2-2v2 2c0 1.1-.899 2-2 2h-22c-1.1 0-2-.9-2-2v-4c0 1.1.9 2 2 2z" fill="#545c66"/><path d="m12.005 50.995c1.101 0 2 .89 2 2 0 1.1-.899 2-2 2-1.109 0-2-.9-2-2 0-1.11.891-2 2-2z" fill="#aab2bd"/><path d="m26.005 50.995c-1.109 0-2 .89-2 2 0 1.1.891 2 2 2 1.101 0 2-.9 2-2 0-1.11-.9-2-2-2zm-14-10c1.101 0 2-.9 2-2 0-1.11-.899-2-2-2-1.109 0-2 .89-2 2 0 1.1.891 2 2 2zm0 10c-1.109 0-2 .89-2 2 0 1.1.891 2 2 2 1.101 0 2-.9 2-2 0-1.11-.9-2-2-2zm0-7c-1.109 0-2 .89-2 2 0 1.1.891 2 2 2 1.101 0 2-.9 2-2 0-1.11-.9-2-2-2zm7-3c1.101 0 2-.9 2-2 0-1.11-.899-2-2-2-1.109 0-2 .89-2 2 0 1.1.891 2 2 2zm0 10c-1.109 0-2 .89-2 2 0 1.1.891 2 2 2 1.101 0 2-.9 2-2 0-1.11-.9-2-2-2zm0-7c-1.109 0-2 .89-2 2 0 1.1.891 2 2 2 1.101 0 2-.9 2-2 0-1.11-.9-2-2-2zm7-3c1.101 0 2-.9 2-2 0-1.11-.899-2-2-2-1.109 0-2 .89-2 2 0 1.1.891 2 2 2zm0 7c1.101 0 2-.9 2-2 0-1.11-.899-2-2-2-1.109 0-2 .89-2 2 0 1.1.891 2 2 2zm6 4.01v4.99c0 1.1-.899 2-2 2h-22c-1.1 0-2-.9-2-2v-26-4c0-1.101.9-2 2-2h11 11c1.101 0 2 .899 2 2v.01 3.99 1.01 5 5 5zm-4-19.01v-4h-18v4z" fill="#656d78"/><path d="m10.005 28.995h18v4h-18z" fill="#5d9cec"/><path d="m26.985 16.015h14v1.001h-14z" fill="#f6bb42"/><path d="m38.983 16.015h2.002v1.001h-2.002z" fill="#edab37"/><path d="m35.983 13.015h-3.996c-.553 0-1-.447-1-1s.447-1 1-1h3.996c.553 0 1 .447 1 1s-.447 1-1 1z" fill="#ffce54"/></svg>