<svg id="Capa_1" enable-background="new 0 0 512 512" height="512" viewBox="0 0 512 512" width="512" xmlns="http://www.w3.org/2000/svg"><g><g><path d="m10 406v-90h36c0-115.98 94.02-210 210-210s210 94.02 210 210h36v90c-352.001 0-164.743 0-492 0zm126-90h240c0-66.17-53.83-120-120-120s-120 53.83-120 120z" fill="#ffda8f"/></g><g><path d="m256 186c-71.682 0-130 58.317-130 130 0 5.522 4.477 10 10 10h240c5.523 0 10-4.478 10-10 0-71.683-58.318-130-130-130zm-109.549 120c5.066-55.988 52.264-100 109.549-100s104.483 44.012 109.549 100z"/><circle cx="404" cy="168" r="10"/><path d="m502 306h-26.225c-1.745-38.764-13.616-76.196-34.597-108.829-2.987-4.646-9.174-5.992-13.82-3.003-4.646 2.986-5.99 9.174-3.003 13.819 20.703 32.199 31.645 69.548 31.645 108.013 0 5.522 4.477 10 10 10h26v70h-46v-20c0-5.522-4.477-10-10-10s-10 4.478-10 10v20h-40v-20c0-5.522-4.477-10-10-10s-10 4.478-10 10v20h-40v-20c0-5.522-4.477-10-10-10s-10 4.478-10 10v20h-40v-20c0-5.522-4.477-10-10-10s-10 4.478-10 10v20h-40v-20c0-5.522-4.477-10-10-10s-10 4.478-10 10v20h-40v-20c0-5.522-4.477-10-10-10s-10 4.478-10 10v20h-40v-20c0-5.522-4.477-10-10-10s-10 4.478-10 10v20h-46v-70h26c5.523 0 10-4.478 10-10 0-110.28 89.72-200 200-200 38.465 0 75.815 10.942 108.013 31.645 4.644 2.985 10.832 1.643 13.819-3.003s1.643-10.833-3.003-13.819c-35.43-22.782-76.52-34.823-118.829-34.823-119.706 0-214.651 94.638-219.778 210h-26.222c-5.523 0-10 4.478-10 10v90c0 5.522 4.477 10 10 10h492c5.523 0 10-4.478 10-10v-90c0-5.522-4.477-10-10-10z"/></g></g></svg>