<?xml version="1.0" encoding="iso-8859-1"?>
<!-- Generator: Adobe Illustrator 19.0.0, SVG Export Plug-In . SVG Version: 6.00 Build 0)  -->
<svg version="1.1" id="Capa_1" xmlns="http://www.w3.org/2000/svg" xmlns:xlink="http://www.w3.org/1999/xlink" x="0px" y="0px"
	 viewBox="0 0 496.485 496.485" style="enable-background:new 0 0 496.485 496.485;" xml:space="preserve">
<circle style="fill:#FDBE5E;" cx="248.242" cy="248.242" r="248.242"/>
<polygon style="fill:#2BA1DB;" points="248.242,55.855 92.315,101.624 92.315,488.727 248.242,488.727 "/>
<path style="fill:#193651;" d="M248.242,496.485H92.315c-4.655,0-7.758-3.103-7.758-7.758V101.624c0-3.103,2.327-6.206,5.43-7.758
	l155.927-45.77c2.327-0.776,4.655,0,6.982,1.552C255.224,51.2,256,53.527,256,55.855v432.873
	C256,493.382,252.897,496.485,248.242,496.485z M100.073,480.97h140.412V66.715L100.073,107.83V480.97z"/>
<polygon style="fill:#D0D1D1;" points="248.242,111.709 404.17,157.479 404.17,488.727 248.242,488.727 "/>
<path style="fill:#193651;" d="M404.17,496.485H248.242c-4.655,0-7.758-3.103-7.758-7.758V111.709c0-2.327,0.776-4.655,3.103-6.206
	c2.327-1.552,4.655-1.552,6.982-1.552l155.927,45.77c3.103,0.776,5.43,3.879,5.43,7.758v331.249
	C411.927,493.382,408.824,496.485,404.17,496.485z M256,480.97h140.412V163.685L256,122.57V480.97z"/>
<g>
	<rect x="334.972" y="198.439" style="fill:#FFFFFF;" width="43.442" height="46.545"/>
	<rect x="273.687" y="198.439" style="fill:#FFFFFF;" width="43.442" height="46.545"/>
	<rect x="334.972" y="270.119" style="fill:#FFFFFF;" width="43.442" height="46.545"/>
	<rect x="273.687" y="270.119" style="fill:#FFFFFF;" width="43.442" height="46.545"/>
	<rect x="334.972" y="342.652" style="fill:#FFFFFF;" width="43.442" height="46.545"/>
	<rect x="273.687" y="342.652" style="fill:#FFFFFF;" width="43.442" height="46.545"/>
	<rect x="334.972" y="414.41" style="fill:#FFFFFF;" width="43.442" height="46.545"/>
	<rect x="273.687" y="414.41" style="fill:#FFFFFF;" width="43.442" height="46.545"/>
	<rect x="117.915" y="342.109" style="fill:#FFFFFF;" width="43.442" height="46.545"/>
	<rect x="179.2" y="342.109" style="fill:#FFFFFF;" width="43.442" height="46.545"/>
	<rect x="117.915" y="270.739" style="fill:#FFFFFF;" width="43.442" height="46.545"/>
	<rect x="179.2" y="270.739" style="fill:#FFFFFF;" width="43.442" height="46.545"/>
	<rect x="117.915" y="198.594" style="fill:#FFFFFF;" width="43.442" height="46.545"/>
	<rect x="179.2" y="198.594" style="fill:#FFFFFF;" width="43.442" height="46.545"/>
	<rect x="117.915" y="126.448" style="fill:#FFFFFF;" width="43.442" height="46.545"/>
	<rect x="179.2" y="126.448" style="fill:#FFFFFF;" width="43.442" height="46.545"/>
</g>
<rect x="139.636" y="420.461" style="fill:#E1E6E9;" width="60.509" height="61.285"/>
<path style="fill:#193651;" d="M487.176,496.485H7.758c-4.655,0-7.758-3.103-7.758-7.758s3.103-7.758,7.758-7.758h479.418
	c4.655,0,7.758,3.103,7.758,7.758S491.83,496.485,487.176,496.485z"/>
<polygon style="fill:#FFFFFF;" points="464.679,236.606 404.17,209.455 404.17,488.727 464.679,488.727 "/>
<g>
	<path style="fill:#193651;" d="M464.679,496.485H404.17c-4.655,0-7.758-3.103-7.758-7.758V209.455c0-2.327,1.552-5.43,3.879-6.206
		c2.327-1.552,4.655-1.552,7.758-0.776l60.509,27.152c3.103,1.552,4.655,3.879,4.655,6.982v252.121
		C472.436,493.382,468.558,496.485,464.679,496.485z M411.927,480.97h44.994V241.261l-44.994-20.17V480.97z"/>
	<rect x="427.442" y="289.358" style="fill:#193651;" width="13.964" height="15.515"/>
	<rect x="427.442" y="328.921" style="fill:#193651;" width="13.964" height="15.515"/>
	<rect x="427.442" y="406.497" style="fill:#193651;" width="13.964" height="15.515"/>
	<rect x="427.442" y="250.57" style="fill:#193651;" width="13.964" height="15.515"/>
	<rect x="427.442" y="367.709" style="fill:#193651;" width="13.964" height="15.515"/>
	<rect x="427.442" y="446.061" style="fill:#193651;" width="13.964" height="15.515"/>
</g>
<polygon style="fill:#FFFFFF;" points="31.806,236.606 92.315,209.455 92.315,488.727 31.806,488.727 "/>
<g>
	<path style="fill:#193651;" d="M92.315,496.485H31.806c-4.655,0-7.758-3.103-7.758-7.758V236.606c0-3.103,1.552-5.43,4.655-6.982
		l60.509-27.152c2.327-0.776,5.43-0.776,7.758,0.776c2.327,1.552,3.879,3.879,3.879,6.206v279.273
		C100.073,493.382,96.194,496.485,92.315,496.485z M39.564,480.97h44.994V221.091l-44.994,20.17
		C39.564,241.261,39.564,480.97,39.564,480.97z"/>
	<rect x="55.079" y="289.358" style="fill:#193651;" width="13.964" height="15.515"/>
	<rect x="55.079" y="328.921" style="fill:#193651;" width="13.964" height="15.515"/>
	<rect x="55.079" y="406.497" style="fill:#193651;" width="13.964" height="15.515"/>
	<rect x="55.079" y="250.57" style="fill:#193651;" width="13.964" height="15.515"/>
	<rect x="55.079" y="367.709" style="fill:#193651;" width="13.964" height="15.515"/>
	<rect x="55.079" y="446.061" style="fill:#193651;" width="13.964" height="15.515"/>
</g>
<g>
</g>
<g>
</g>
<g>
</g>
<g>
</g>
<g>
</g>
<g>
</g>
<g>
</g>
<g>
</g>
<g>
</g>
<g>
</g>
<g>
</g>
<g>
</g>
<g>
</g>
<g>
</g>
<g>
</g>
</svg>
